<svg width="247" height="55" viewBox="0 0 247 55" fill="none" xmlns="http://www.w3.org/2000/svg">
<path d="M24.108 13.632C23.968 13.604 23.968 13.548 24.108 13.464L24.388 13.352C24.556 13.268 24.78 13.128 25.06 12.904C25.34 12.708 25.592 12.456 25.872 12.176C26.152 11.896 26.376 11.504 26.6 11.028C26.824 10.552 26.964 10.048 27.02 9.488C27.132 7.668 26.124 6.184 23.996 5.064C21.868 3.944 18.284 3.3 13.3 3.132C6.804 2.908 2.828 3.916 1.372 6.156C0.672 7.108 0.42 8.256 0.616 9.6C0.784 10.944 1.428 11.98 2.52 12.708C3.36 13.296 4.284 13.576 5.292 13.576C6.272 13.576 7.084 13.436 7.728 13.1C8.372 12.792 8.848 12.428 9.156 12.036C9.408 11.7 9.548 11.448 9.604 11.252C9.632 11.056 9.604 10.916 9.52 10.832C9.408 10.748 9.268 10.636 9.044 10.468C8.82 10.328 8.624 10.16 8.512 9.964C8.26 9.628 8.148 9.208 8.148 8.704C8.148 8.228 8.288 7.836 8.568 7.556C9.128 6.912 10.192 6.548 11.76 6.436C11.312 9.684 10.864 12.904 10.416 16.124C10.304 17.02 10.276 17.86 10.304 18.7C10.304 19.54 10.472 20.352 10.78 21.136C11.088 21.92 11.508 22.592 12.012 23.18C12.516 23.768 13.244 24.244 14.14 24.636C15.036 25.028 16.1 25.28 17.332 25.364C18.872 25.476 20.328 25.336 21.672 24.916C23.016 24.524 24.22 23.796 25.228 22.732C26.236 21.696 26.88 20.38 27.104 18.812C27.244 17.776 27.048 16.768 26.544 15.788C26.04 14.808 25.228 14.08 24.108 13.632ZM21.028 18.504C20.888 19.512 20.58 20.296 20.132 20.912C19.684 21.528 19.068 21.864 18.34 21.892C16.772 21.976 16.128 20.8 16.464 18.364L16.828 15.536C18.2 15.2 19.292 15.284 20.076 15.788C20.86 16.32 21.196 17.216 21.028 18.504ZM21.14 9.516C20.888 11.392 19.6 12.288 17.304 12.204L17.976 6.66C19.04 6.632 19.88 6.856 20.496 7.332C21.112 7.836 21.308 8.564 21.14 9.516ZM44.4426 18.504C44.6946 16.404 44.1626 14.556 42.8746 12.988C41.5586 11.42 39.7946 10.552 37.5546 10.384C35.3146 10.244 33.3546 10.86 31.6746 12.204C29.9946 13.576 29.0146 15.312 28.7626 17.384C28.4826 19.512 29.0146 21.332 30.3306 22.9C31.6466 24.468 33.4386 25.336 35.6786 25.504C37.9466 25.672 39.9066 25.056 41.5586 23.712C43.2106 22.368 44.1626 20.632 44.4426 18.504ZM34.2786 17.776C34.4466 16.488 34.7546 15.452 35.2586 14.64C35.7346 13.856 36.3786 13.464 37.1626 13.52C37.9186 13.576 38.4506 14.052 38.7306 14.892C39.0106 15.76 39.0946 16.824 38.9266 18.112C38.7586 19.456 38.4226 20.492 37.9466 21.276C37.4706 22.06 36.8546 22.424 36.0706 22.368C35.2866 22.312 34.7546 21.864 34.4746 20.996C34.1946 20.128 34.1106 19.064 34.2786 17.776ZM59.6538 20.436C59.5418 20.352 59.4298 20.352 59.2618 20.464C58.4498 20.912 57.6098 21.248 56.7418 21.444C55.8458 21.668 55.0058 21.724 54.1938 21.64C53.3818 21.556 52.7378 21.192 52.2338 20.52C51.7298 19.848 51.4778 18.924 51.5338 17.72C51.5618 16.6 51.8138 15.592 52.3178 14.668C52.8218 13.744 53.4098 13.268 54.1378 13.268C54.5298 13.268 54.8098 13.464 55.0338 13.8C55.2298 14.164 55.2858 14.64 55.2298 15.2C55.2018 15.34 55.1738 15.508 55.1458 15.704C55.0898 15.9 55.0898 16.012 55.0898 16.068C55.0898 16.124 55.0898 16.236 55.1178 16.348C55.1738 16.46 55.3978 16.544 55.7898 16.656C56.1818 16.768 56.5738 16.824 57.0218 16.824C57.8058 16.824 58.4778 16.544 59.0938 15.956C59.6818 15.396 60.0178 14.752 60.1018 14.024C60.2418 12.792 59.7378 11.812 58.5898 11.14C57.4138 10.468 55.9858 10.104 54.3058 10.104C52.1498 10.216 50.2738 11 48.7058 12.456C47.1098 13.912 46.1858 15.676 45.9338 17.72C45.6538 19.848 46.1858 21.64 47.5018 23.124C48.7898 24.636 50.5258 25.364 52.6538 25.364C53.6058 25.364 54.5018 25.196 55.3698 24.86C56.2378 24.524 56.9658 24.076 57.5258 23.572C58.0858 23.068 58.5618 22.564 58.9258 22.116C59.2618 21.668 59.5138 21.248 59.6818 20.884C59.7658 20.716 59.7658 20.548 59.6538 20.436ZM83.8808 19.288L84.4128 14.92C84.5808 13.576 84.3568 12.456 83.7128 11.588C83.0688 10.748 82.2008 10.3 81.1368 10.3C80.2968 10.3 79.4008 10.58 78.5048 11.112C77.6088 11.672 76.8248 12.512 76.1528 13.632C76.0408 12.624 75.7048 11.812 75.0888 11.196C74.4728 10.608 73.7448 10.3 72.8488 10.3C72.0088 10.3 71.1688 10.58 70.2728 11.084C69.3768 11.616 68.5928 12.428 67.9208 13.52C67.8368 12.512 67.5008 11.728 66.8848 11.168C66.2688 10.608 65.4848 10.3 64.5048 10.3C63.7488 10.3 63.0208 10.524 62.2928 10.944C61.5648 11.364 61.0888 11.812 60.8928 12.288C60.8088 12.456 60.8368 12.568 60.9768 12.652C61.1168 12.764 61.2848 12.876 61.5088 13.044C61.7328 13.212 61.8728 13.548 61.9848 14.108C62.0968 14.668 62.0968 15.48 61.9848 16.544C61.8168 17.832 61.4248 20.604 60.7808 24.86V24.916L60.8648 25H66.4648H66.4928C66.5208 25 66.5488 24.972 66.5768 24.944C66.6048 24.916 66.6328 24.888 66.6328 24.832L67.5568 17.328C67.6688 16.516 67.8928 15.788 68.2848 15.172C68.7608 14.444 69.2368 14.136 69.7408 14.22C70.2728 14.332 70.4688 14.864 70.3568 15.844C70.3008 16.348 70.2448 16.992 70.1328 17.832C69.9648 19.064 69.6848 21.388 69.2928 24.86C69.2648 24.888 69.2648 24.916 69.2928 24.916L69.3768 25H74.9768H75.0048C75.0328 25 75.0608 24.972 75.0888 24.944C75.1168 24.916 75.1448 24.888 75.1448 24.832L75.7888 17.832L75.8448 17.328C75.9288 16.488 76.1808 15.788 76.5728 15.172C77.0488 14.444 77.5248 14.136 78.0288 14.22C78.5608 14.332 78.7568 14.864 78.6448 15.844L77.9728 21.276C77.8048 22.564 78.0848 23.6 78.7848 24.384C79.4848 25.168 80.4088 25.532 81.5848 25.532C82.3128 25.532 83.0688 25.336 83.7968 24.916C84.5248 24.496 84.9728 24.048 85.1968 23.572C85.2528 23.46 85.2528 23.348 85.1688 23.264C85.0568 23.18 84.9168 23.096 84.7488 23.012C84.5528 22.928 84.3848 22.76 84.2168 22.508C84.0488 22.256 83.9088 21.892 83.8248 21.388C83.7408 20.884 83.7688 20.184 83.8808 19.288ZM84.1328 4C84.1048 4 83.9648 4.084 83.7128 4.252C83.4608 4.42 83.1808 4.588 82.9008 4.728C82.6208 4.896 82.1728 5.036 81.6128 5.148C81.0528 5.26 80.4368 5.316 79.7648 5.288C78.8128 5.288 77.5248 5.092 75.9568 4.728C74.3608 4.392 72.9328 4.196 71.6448 4.14H71.0008C68.5088 4.224 66.6888 5.092 65.5128 6.772C64.8968 7.64 64.6448 8.368 64.7568 8.928C64.7848 9.152 64.8688 9.236 65.0368 9.18C65.0368 9.18 65.2328 9.068 65.5968 8.844C65.9608 8.62 66.4648 8.424 67.1368 8.228C67.7808 8.06 68.5368 7.948 69.4328 7.948C70.1608 7.948 71.4208 8.088 73.1848 8.424C74.9488 8.76 76.3208 8.928 77.2728 8.956C80.4648 9.04 82.6488 8.256 83.8528 6.632C84.4408 5.848 84.6648 5.092 84.4968 4.364C84.4128 4.056 84.3008 3.944 84.1328 4ZM102.411 18.504C102.663 16.404 102.131 14.556 100.843 12.988C99.5273 11.42 97.7633 10.552 95.5233 10.384C93.2833 10.244 91.3233 10.86 89.6433 12.204C87.9633 13.576 86.9833 15.312 86.7313 17.384C86.4513 19.512 86.9833 21.332 88.2993 22.9C89.6153 24.468 91.4073 25.336 93.6473 25.504C95.9153 25.672 97.8753 25.056 99.5273 23.712C101.179 22.368 102.131 20.632 102.411 18.504ZM92.2473 17.776C92.4153 16.488 92.7233 15.452 93.2273 14.64C93.7033 13.856 94.3473 13.464 95.1313 13.52C95.8873 13.576 96.4193 14.052 96.6993 14.892C96.9793 15.76 97.0633 16.824 96.8953 18.112C96.7273 19.456 96.3913 20.492 95.9153 21.276C95.4393 22.06 94.8233 22.424 94.0393 22.368C93.2553 22.312 92.7233 21.864 92.4433 20.996C92.1633 20.128 92.0793 19.064 92.2473 17.776ZM117.572 19.316C117.74 18.056 117.88 16.908 118.02 15.872C118.16 14.864 118.272 14.08 118.328 13.52C118.384 12.988 118.44 12.54 118.496 12.176C118.552 11.812 118.58 11.56 118.608 11.448V11.308V11.252L118.524 11.168H112.98H112.952C112.896 11.196 112.868 11.224 112.84 11.252C112.812 11.28 112.812 11.308 112.812 11.336L112.252 15.984C112.168 16.6 112 17.104 111.776 17.552C111.384 18.224 110.964 18.504 110.516 18.392C110.012 18.28 109.816 17.664 109.956 16.572L110.18 14.892C110.32 13.604 110.04 12.596 109.368 11.812C108.668 11.028 107.744 10.636 106.568 10.636C105.812 10.636 105.084 10.86 104.356 11.28C103.628 11.7 103.18 12.148 102.956 12.624C102.9 12.764 102.9 12.876 103.012 12.932C103.096 13.016 103.236 13.1 103.432 13.184C103.6 13.268 103.796 13.436 103.964 13.688C104.132 13.94 104.244 14.304 104.328 14.808C104.412 15.312 104.412 15.984 104.3 16.88L104.216 17.552C104.104 18.812 104.412 19.792 105.112 20.464C105.812 21.136 106.708 21.472 107.8 21.472C109.536 21.472 110.908 20.884 111.916 19.708L111.692 21.304C111.524 22.592 111.804 23.628 112.504 24.412C113.176 25.196 114.128 25.56 115.304 25.56C116.032 25.56 116.76 25.364 117.488 24.944C118.216 24.524 118.692 24.076 118.916 23.6C118.972 23.488 118.944 23.376 118.86 23.292C118.748 23.208 118.608 23.124 118.44 23.04C118.244 22.956 118.076 22.788 117.908 22.536C117.74 22.284 117.6 21.92 117.516 21.416C117.432 20.912 117.46 20.212 117.572 19.316ZM135.342 19.344L136.35 11.056V11L136.266 10.916H130.89C130.778 10.916 130.722 10.972 130.722 11.056L130.106 16.18H127.362L127.558 14.556C127.698 13.268 127.446 12.26 126.829 11.476C126.186 10.692 125.29 10.3 124.142 10.3C123.386 10.3 122.658 10.524 121.93 10.944C121.202 11.364 120.754 11.812 120.53 12.288C120.446 12.456 120.474 12.568 120.614 12.652C120.754 12.764 120.922 12.876 121.146 13.044C121.37 13.212 121.538 13.548 121.65 14.108C121.762 14.668 121.762 15.48 121.65 16.544C121.482 17.832 121.09 20.604 120.446 24.86C120.418 24.888 120.418 24.916 120.446 24.916L120.53 25H126.13H126.158C126.186 25 126.214 24.972 126.242 24.944C126.27 24.916 126.298 24.888 126.298 24.832L126.942 19.456H129.686L129.462 21.332C129.294 22.62 129.546 23.656 130.19 24.412C130.806 25.168 131.702 25.532 132.878 25.532C133.606 25.532 134.334 25.336 135.062 24.944C135.79 24.552 136.238 24.104 136.462 23.628C136.518 23.488 136.49 23.376 136.35 23.264C136.21 23.18 136.042 23.04 135.818 22.872C135.594 22.704 135.454 22.34 135.342 21.78C135.23 21.22 135.23 20.408 135.342 19.344ZM157.817 19.288L158.349 14.92C158.517 13.576 158.265 12.456 157.621 11.588C156.977 10.748 156.109 10.3 155.045 10.3C154.065 10.3 153.057 10.664 152.049 11.364C151.041 12.092 150.201 13.184 149.529 14.668C148.689 14.164 147.737 13.884 146.729 13.884C146.001 13.884 145.245 13.968 144.461 14.08L144.825 11V10.944L144.741 10.832H139.337L139.197 10.972C139.197 10.972 139.057 12.12 138.777 14.444C138.497 16.796 138.273 18.448 138.161 19.456C138.077 20.184 138.105 20.856 138.245 21.528C138.385 22.2 138.665 22.844 139.057 23.46C139.449 24.076 140.093 24.58 140.961 24.972C141.829 25.364 142.893 25.532 144.125 25.532C146.001 25.532 147.653 24.972 149.109 23.796C150.565 22.648 151.377 21.192 151.601 19.4C151.769 17.944 151.461 16.712 150.649 15.648C150.901 15.032 151.209 14.612 151.545 14.36C151.881 14.108 152.161 14.108 152.385 14.388C152.609 14.668 152.665 15.144 152.581 15.844L151.909 21.276C151.741 22.564 152.021 23.6 152.721 24.384C153.421 25.168 154.345 25.532 155.521 25.532C156.249 25.532 156.977 25.336 157.705 24.916C158.433 24.496 158.909 24.048 159.133 23.544C159.189 23.432 159.189 23.32 159.105 23.236C158.993 23.18 158.853 23.096 158.685 23.012C158.489 22.928 158.321 22.76 158.153 22.508C157.985 22.256 157.845 21.892 157.761 21.388C157.677 20.884 157.705 20.184 157.817 19.288ZM144.657 22.284C143.873 22.284 143.565 21.556 143.733 20.044L144.153 16.628C144.321 16.6 144.517 16.572 144.713 16.572C145.329 16.572 145.777 16.824 146.057 17.3C146.337 17.804 146.421 18.448 146.337 19.26C146.225 20.212 146.029 20.94 145.805 21.472C145.553 22.032 145.161 22.284 144.657 22.284ZM175.26 19.316C175.428 18.028 175.848 15.256 176.52 11C176.52 10.944 176.464 10.888 176.408 10.86H170.78L170.668 11.028L169.716 18.728C169.604 19.484 169.352 20.128 169.016 20.632C168.512 21.388 168.036 21.724 167.532 21.64C166.972 21.584 166.776 21.024 166.916 20.016L167.588 14.584C167.756 13.296 167.476 12.288 166.776 11.504C166.076 10.72 165.152 10.328 163.976 10.328C163.22 10.328 162.492 10.552 161.764 10.972C161.036 11.392 160.56 11.84 160.336 12.316C160.28 12.456 160.28 12.568 160.392 12.624C160.504 12.708 160.644 12.792 160.812 12.876C160.98 12.96 161.176 13.128 161.344 13.38C161.512 13.632 161.624 13.996 161.708 14.5C161.792 15.004 161.792 15.676 161.68 16.572L161.148 20.94C160.98 22.312 161.204 23.432 161.848 24.272C162.492 25.14 163.36 25.56 164.424 25.56C165.264 25.56 166.104 25.308 167 24.776C167.896 24.272 168.68 23.46 169.352 22.34C169.408 23.348 169.772 24.16 170.388 24.72C171.004 25.28 171.788 25.56 172.768 25.56C173.496 25.56 174.252 25.364 174.98 24.944C175.708 24.524 176.184 24.076 176.408 23.572C176.464 23.432 176.436 23.32 176.296 23.208C176.128 23.096 175.96 22.984 175.764 22.844C175.54 22.732 175.372 22.368 175.26 21.752C175.148 21.136 175.148 20.324 175.26 19.316ZM175.092 7.388C175.568 6.66 175.764 5.96 175.708 5.26C175.624 4.588 175.316 4.056 174.756 3.664C174.196 3.272 173.552 3.16 172.824 3.328C172.096 3.496 171.536 3.888 171.088 4.504C170.332 5.512 170.276 6.464 170.892 7.416C171.116 7.752 170.948 8.004 170.444 8.228C169.604 8.62 168.792 8.62 168.008 8.228C167.56 8.032 167.476 7.752 167.812 7.416C168.624 6.464 168.792 5.512 168.316 4.504C168.008 3.888 167.504 3.496 166.832 3.328C166.16 3.16 165.488 3.272 164.844 3.664C164.172 4.056 163.724 4.588 163.472 5.316C163.22 6.044 163.276 6.716 163.612 7.388C164.2 8.564 165.264 9.348 166.804 9.768C168.344 10.216 169.912 10.216 171.508 9.768C173.104 9.32 174.308 8.536 175.092 7.388ZM211.275 9.628C211.863 8.228 211.527 6.996 210.267 5.876C209.007 4.784 207.271 4.252 205.087 4.252C202.511 4.252 200.187 4.952 198.171 6.324C192.851 4.476 188.735 4.308 185.767 5.848C183.807 6.912 182.883 8.34 182.939 10.188C182.967 11.448 183.359 12.484 184.115 13.324C184.843 14.164 185.851 14.64 187.139 14.752C188.063 14.836 188.903 14.696 189.631 14.304C190.359 13.912 190.891 13.38 191.227 12.68C191.283 12.596 191.143 12.288 190.807 11.728C190.471 11.168 190.387 10.664 190.527 10.16C190.751 9.32 191.395 8.788 192.515 8.62C193.607 8.452 194.699 8.536 195.763 8.9C194.419 10.944 193.663 12.904 193.495 14.752C193.159 17.72 193.803 20.24 195.427 22.368C197.051 24.496 199.207 25.504 201.951 25.448C203.015 25.448 204.051 25.28 205.003 24.944C205.955 24.608 206.711 24.244 207.327 23.796C207.915 23.348 208.447 22.872 208.951 22.312C209.427 21.78 209.763 21.332 209.987 20.94C210.211 20.576 210.351 20.24 210.463 19.96C210.547 19.736 210.603 19.54 210.631 19.372C210.631 19.064 210.463 19.036 210.099 19.316C209.119 20.1 208.055 20.66 206.879 20.94C205.703 21.248 204.583 21.276 203.547 21.052C202.511 20.828 201.643 20.184 200.943 19.12C200.243 18.084 199.907 16.712 199.907 14.976C199.907 14.248 200.019 13.492 200.243 12.652C200.467 11.812 200.719 11.112 201.055 10.552C201.783 10.832 202.427 11.084 202.987 11.252C203.547 11.42 204.191 11.616 204.919 11.784C205.647 11.98 206.319 12.064 206.907 12.064C207.495 12.064 208.083 12.008 208.671 11.896C209.231 11.784 209.763 11.532 210.211 11.14C210.659 10.748 210.995 10.244 211.275 9.628ZM206.095 8.284C205.983 8.564 205.703 8.732 205.283 8.76C204.863 8.816 204.415 8.76 203.939 8.648C203.435 8.536 202.959 8.368 202.511 8.144C202.595 8.088 202.679 8.004 202.791 7.948C203.715 7.388 204.611 7.22 205.451 7.416C206.067 7.584 206.263 7.864 206.095 8.284ZM226.786 19.148C226.954 17.86 227.346 15.088 228.018 10.832C228.018 10.776 227.99 10.72 227.934 10.692H222.334L222.278 10.72C222.25 10.72 222.222 10.748 222.194 10.776C222.166 10.804 222.166 10.832 222.166 10.86L221.914 12.792C221.13 11.028 219.87 10.132 218.078 10.132C216.314 10.132 214.83 10.832 213.654 12.232C212.478 13.632 211.75 15.368 211.526 17.384C211.358 18.672 211.386 19.932 211.666 21.108C211.946 22.312 212.45 23.32 213.234 24.132C213.99 24.972 214.942 25.364 216.062 25.364C217.91 25.364 219.506 24.328 220.878 22.2C220.934 23.208 221.27 23.992 221.886 24.552C222.502 25.112 223.314 25.392 224.294 25.392C225.022 25.392 225.778 25.196 226.506 24.776C227.234 24.356 227.682 23.908 227.906 23.404C227.962 23.292 227.934 23.18 227.878 23.096C227.794 23.04 227.682 22.956 227.514 22.872C227.346 22.788 227.178 22.62 227.038 22.368C226.898 22.116 226.786 21.752 226.73 21.248C226.646 20.744 226.674 20.044 226.786 19.148ZM218.918 21.5C218.246 21.5 217.798 21.164 217.518 20.436C217.238 19.736 217.154 18.84 217.294 17.72C217.406 16.628 217.714 15.732 218.162 15.004C218.61 14.276 219.17 13.912 219.842 13.912C220.486 13.912 220.962 14.276 221.242 15.004C221.522 15.732 221.606 16.628 221.494 17.72C221.354 18.84 221.046 19.736 220.598 20.436C220.15 21.164 219.59 21.5 218.918 21.5ZM235.905 4.112C234.673 3.972 233.553 4.112 232.545 4.56C231.537 5.008 230.921 5.82 230.753 6.996C230.641 7.808 230.809 8.508 231.285 9.096C231.761 9.684 232.181 9.964 232.517 9.964C232.545 9.964 232.685 9.908 232.909 9.796C233.133 9.684 233.469 9.544 233.861 9.432C234.253 9.32 234.673 9.236 235.121 9.236C236.997 9.236 238.481 9.824 239.573 10.972C240.665 12.148 241.113 13.576 240.945 15.256H240.917C240.777 14.36 240.329 13.548 239.601 12.876C238.845 12.204 237.893 11.812 236.773 11.7C234.897 11.56 233.273 12.092 231.901 13.296C230.529 14.528 229.717 16.18 229.493 18.28C229.213 20.408 229.717 22.144 230.977 23.488C232.209 24.86 234.001 25.532 236.297 25.532C238.537 25.532 240.385 24.608 241.869 22.76C243.353 20.912 244.193 18.28 244.389 14.92C244.445 13.716 244.361 12.54 244.081 11.392C243.801 10.244 243.353 9.152 242.737 8.116C242.121 7.08 241.225 6.212 240.049 5.484C238.873 4.756 237.473 4.308 235.905 4.112ZM238.789 18.56C238.453 21.08 237.669 22.34 236.437 22.34C235.149 22.34 234.673 21.08 235.009 18.56C235.289 16.04 236.073 14.752 237.361 14.752C238.593 14.752 239.069 16.04 238.789 18.56Z" fill="#005320"/>
<line x1="8.74228e-08" y1="33" x2="240" y2="33" stroke="#005320" stroke-width="2"/>
<path d="M7.011 52.784C6.96033 53.0627 6.96033 53.2653 7.011 53.392C7.06167 53.506 7.18833 53.563 7.391 53.563C7.64433 53.563 7.87867 53.4237 8.094 53.145C8.322 52.8537 8.55633 52.347 8.797 51.625L9.025 50.922H9.386L8.93 52.309C8.76533 52.8157 8.56267 53.2147 8.322 53.506C8.094 53.7847 7.83433 53.981 7.543 54.095C7.26433 54.209 6.973 54.266 6.669 54.266C6.26367 54.266 5.93433 54.1267 5.681 53.848C5.42767 53.5567 5.37067 53.0943 5.51 52.461L5.776 51.207C5.928 50.4723 5.84567 49.934 5.529 49.592C5.225 49.2373 4.541 49.022 3.477 48.946V48.87C3.95833 48.832 4.446 48.832 4.94 48.87C5.44667 48.908 5.89633 49.0157 6.289 49.193C6.68167 49.3577 6.97933 49.611 7.182 49.953C7.38467 50.2823 7.429 50.7193 7.315 51.264L7.011 52.784ZM8.683 44.367C8.531 44.367 8.398 44.3923 8.284 44.443C8.18267 44.4937 8.08133 44.557 7.98 44.633C7.73933 44.823 7.53033 45.0953 7.353 45.45C7.18833 45.8047 7.01733 46.1847 6.84 46.59C6.67533 46.9827 6.46633 47.3627 6.213 47.73C5.97233 48.0847 5.64933 48.376 5.244 48.604C4.85133 48.832 4.33833 48.9397 3.705 48.927L3.515 48.946L3.553 48.737C4.17367 48.699 4.674 48.5597 5.054 48.319C5.434 48.0783 5.738 47.7807 5.966 47.426C6.194 47.0713 6.384 46.704 6.536 46.324C6.70067 45.9313 6.86533 45.564 7.03 45.222C7.20733 44.88 7.429 44.6077 7.695 44.405C7.923 44.2277 8.12567 44.1137 8.303 44.063C8.493 43.9997 8.67033 43.968 8.835 43.968C9.27833 43.968 9.58233 44.082 9.747 44.31C9.91167 44.5253 9.98133 44.785 9.956 45.089C9.94333 45.241 9.899 45.412 9.823 45.602C9.747 45.792 9.62667 45.9567 9.462 46.096C9.31 46.2353 9.10733 46.305 8.854 46.305C8.57533 46.305 8.379 46.2227 8.265 46.058C8.151 45.8807 8.10033 45.6907 8.113 45.488C8.12567 45.3107 8.189 45.1207 8.303 44.918C8.417 44.7027 8.55633 44.519 8.721 44.367C8.70833 44.367 8.702 44.367 8.702 44.367C8.702 44.367 8.69567 44.367 8.683 44.367ZM2.071 54H0.437L2.983 45.849C3.03367 45.7223 3.078 45.5703 3.116 45.393C3.154 45.203 3.154 45.0383 3.116 44.899C3.078 44.747 2.95767 44.671 2.755 44.671C2.47633 44.671 2.21667 44.8167 1.976 45.108C1.73533 45.3993 1.482 45.8997 1.216 46.609L0.95 47.312H0.589L1.102 45.925C1.30467 45.393 1.539 44.9877 1.805 44.709C2.08367 44.4303 2.36867 44.2403 2.66 44.139C2.95133 44.025 3.22367 43.968 3.477 43.968C3.857 43.968 4.123 44.0567 4.275 44.234C4.427 44.3987 4.50933 44.614 4.522 44.88C4.53467 45.146 4.503 45.4373 4.427 45.754C4.351 46.058 4.275 46.3493 4.199 46.628L2.071 54ZM16.4264 44.348C16.0211 44.348 15.6284 44.5127 15.2484 44.842C14.8811 45.1587 14.5391 45.5957 14.2224 46.153C13.9184 46.6977 13.6461 47.312 13.4054 47.996C13.1774 48.68 13.0001 49.3893 12.8734 50.124C12.7467 50.8587 12.6834 51.5617 12.6834 52.233C12.6834 52.803 12.7721 53.221 12.9494 53.487C13.1394 53.753 13.4117 53.886 13.7664 53.886C14.1717 53.886 14.5581 53.7277 14.9254 53.411C15.3054 53.0817 15.6537 52.6447 15.9704 52.1C16.2871 51.5427 16.5594 50.922 16.7874 50.238C17.0154 49.554 17.1927 48.851 17.3194 48.129C17.4461 47.3943 17.5094 46.685 17.5094 46.001C17.5094 45.4183 17.4207 45.0003 17.2434 44.747C17.0661 44.481 16.7937 44.348 16.4264 44.348ZM11.0494 51.283C11.0494 50.7257 11.1254 50.1177 11.2774 49.459C11.4294 48.8003 11.6574 48.148 11.9614 47.502C12.2654 46.856 12.6327 46.267 13.0634 45.735C13.5067 45.203 14.0197 44.7787 14.6024 44.462C15.1851 44.1327 15.8311 43.968 16.5404 43.968C17.3257 43.968 17.9527 44.215 18.4214 44.709C18.9027 45.1903 19.1434 45.9377 19.1434 46.951C19.1434 47.5083 19.0674 48.1163 18.9154 48.775C18.7634 49.4337 18.5354 50.086 18.2314 50.732C17.9274 51.378 17.5537 51.967 17.1104 52.499C16.6797 53.031 16.1731 53.4617 15.5904 53.791C15.0077 54.1077 14.3617 54.266 13.6524 54.266C12.8671 54.266 12.2337 54.019 11.7524 53.525C11.2837 53.031 11.0494 52.2837 11.0494 51.283ZM22.2267 54H20.5737L22.8537 45.849C22.8917 45.735 22.9234 45.5893 22.9487 45.412C22.9867 45.222 22.9867 45.051 22.9487 44.899C22.9107 44.747 22.7904 44.671 22.5877 44.671C22.3091 44.671 22.0557 44.8167 21.8277 45.108C21.5997 45.3993 21.3591 45.8997 21.1057 46.609L20.8587 47.312H20.4977L20.9727 45.925C21.1627 45.393 21.3844 44.9877 21.6377 44.709C21.9037 44.4303 22.1761 44.2403 22.4547 44.139C22.7461 44.025 23.0184 43.968 23.2717 43.968C23.6517 43.968 23.9241 44.0567 24.0887 44.234C24.2534 44.3987 24.3421 44.6203 24.3547 44.899C24.3801 45.165 24.3611 45.45 24.2977 45.754C24.2344 46.058 24.1647 46.3493 24.0887 46.628L22.2267 54ZM27.6037 46.172C27.6924 45.906 27.7494 45.6527 27.7747 45.412C27.8127 45.1713 27.7937 44.975 27.7177 44.823C27.6544 44.6583 27.5024 44.576 27.2617 44.576C26.9071 44.576 26.5144 44.7977 26.0837 45.241C25.6657 45.6717 25.2351 46.2797 24.7917 47.065C24.3611 47.8377 23.9431 48.7433 23.5377 49.782C23.1324 50.808 22.7714 51.91 22.4547 53.088L23.0817 50.048C23.6644 48.528 24.2091 47.3247 24.7157 46.438C25.2224 45.5513 25.7291 44.918 26.2357 44.538C26.7551 44.158 27.3061 43.968 27.8887 43.968C28.2941 43.968 28.5854 44.063 28.7627 44.253C28.9527 44.4303 29.0667 44.6647 29.1047 44.956C29.1427 45.2473 29.1301 45.5577 29.0667 45.887C29.0161 46.2163 28.9527 46.533 28.8767 46.837L26.9387 54H25.2287L27.6037 46.172ZM32.3537 46.172C32.4804 45.7793 32.5437 45.4183 32.5437 45.089C32.5437 44.747 32.4044 44.576 32.1257 44.576C31.7457 44.576 31.3467 44.7977 30.9287 45.241C30.5107 45.6843 30.0801 46.3177 29.6367 47.141C29.1934 47.9517 28.7501 48.908 28.3067 50.01C27.8761 51.0993 27.4581 52.3027 27.0527 53.62L27.4897 51.188C27.9837 49.8707 28.4397 48.756 28.8577 47.844C29.2757 46.9193 29.6874 46.172 30.0927 45.602C30.4981 45.032 30.9161 44.6203 31.3467 44.367C31.7774 44.101 32.2461 43.968 32.7527 43.968C33.2847 43.968 33.6457 44.12 33.8357 44.424C34.0257 44.728 34.1017 45.1017 34.0637 45.545C34.0384 45.9757 33.9561 46.4063 33.8167 46.837L31.9737 52.385C31.8471 52.7777 31.8027 53.0753 31.8407 53.278C31.8787 53.468 32.0244 53.563 32.2777 53.563C32.5184 53.563 32.7527 53.43 32.9807 53.164C33.2214 52.898 33.4747 52.385 33.7407 51.625L33.9877 50.922H34.3487L33.8737 52.309C33.6964 52.841 33.4747 53.2463 33.2087 53.525C32.9554 53.8037 32.6831 53.9937 32.3917 54.095C32.1131 54.209 31.8407 54.266 31.5747 54.266C31.2581 54.266 31.0047 54.2153 30.8147 54.114C30.6374 54.0253 30.4981 53.905 30.3967 53.753C30.2447 53.5123 30.1941 53.2147 30.2447 52.86C30.2954 52.4927 30.3967 52.0747 30.5487 51.606L32.3537 46.172ZM37.59 54H35.937L38.217 45.849C38.255 45.735 38.2867 45.5893 38.312 45.412C38.35 45.222 38.35 45.051 38.312 44.899C38.274 44.747 38.1537 44.671 37.951 44.671C37.6723 44.671 37.419 44.8167 37.191 45.108C36.963 45.3993 36.7223 45.8997 36.469 46.609L36.222 47.312H35.861L36.336 45.925C36.526 45.393 36.7477 44.9877 37.001 44.709C37.267 44.4303 37.5393 44.2403 37.818 44.139C38.1093 44.025 38.3817 43.968 38.635 43.968C39.015 43.968 39.2873 44.0567 39.452 44.234C39.6167 44.3987 39.7053 44.6203 39.718 44.899C39.7433 45.165 39.7243 45.45 39.661 45.754C39.5977 46.058 39.528 46.3493 39.452 46.628L37.59 54ZM42.967 46.172C43.0557 45.906 43.1127 45.6527 43.138 45.412C43.176 45.1713 43.157 44.975 43.081 44.823C43.0177 44.6583 42.8657 44.576 42.625 44.576C42.2703 44.576 41.8777 44.7977 41.447 45.241C41.029 45.6717 40.5983 46.2797 40.155 47.065C39.7243 47.8377 39.3063 48.7433 38.901 49.782C38.4957 50.808 38.1347 51.91 37.818 53.088L38.445 50.048C39.0277 48.528 39.5723 47.3247 40.079 46.438C40.5857 45.5513 41.0923 44.918 41.599 44.538C42.1183 44.158 42.6693 43.968 43.252 43.968C43.6573 43.968 43.9487 44.063 44.126 44.253C44.316 44.4303 44.43 44.6647 44.468 44.956C44.506 45.2473 44.4933 45.5577 44.43 45.887C44.3793 46.2163 44.316 46.533 44.24 46.837L42.302 54H40.592L42.967 46.172ZM47.717 46.172C47.8437 45.7793 47.907 45.4183 47.907 45.089C47.907 44.747 47.7677 44.576 47.489 44.576C47.109 44.576 46.71 44.7977 46.292 45.241C45.874 45.6843 45.4433 46.3177 45 47.141C44.5567 47.9517 44.1133 48.908 43.67 50.01C43.2393 51.0993 42.8213 52.3027 42.416 53.62L42.853 51.188C43.347 49.8707 43.803 48.756 44.221 47.844C44.639 46.9193 45.0507 46.172 45.456 45.602C45.8613 45.032 46.2793 44.6203 46.71 44.367C47.1407 44.101 47.6093 43.968 48.116 43.968C48.648 43.968 49.009 44.12 49.199 44.424C49.389 44.728 49.465 45.1017 49.427 45.545C49.4017 45.9757 49.3193 46.4063 49.18 46.837L47.337 52.385C47.2103 52.7777 47.166 53.0753 47.204 53.278C47.242 53.468 47.3877 53.563 47.641 53.563C47.8817 53.563 48.116 53.43 48.344 53.164C48.5847 52.898 48.838 52.385 49.104 51.625L49.351 50.922H49.712L49.237 52.309C49.0597 52.841 48.838 53.2463 48.572 53.525C48.3187 53.8037 48.0463 53.9937 47.755 54.095C47.4763 54.209 47.204 54.266 46.938 54.266C46.6213 54.266 46.368 54.2153 46.178 54.114C46.0007 54.0253 45.8613 53.905 45.76 53.753C45.608 53.5123 45.5573 53.2147 45.608 52.86C45.6587 52.4927 45.76 52.0747 45.912 51.606L47.717 46.172ZM52.2503 49.687C52.9596 49.4463 53.5993 49.212 54.1693 48.984C54.752 48.7433 55.2143 48.49 55.5563 48.224C56.0123 47.8567 56.3733 47.4133 56.6393 46.894C56.9053 46.3747 57.0383 45.8047 57.0383 45.184C57.0383 44.8167 57.013 44.5823 56.9623 44.481C56.9116 44.3797 56.8356 44.329 56.7343 44.329C56.4176 44.329 56.0756 44.4683 55.7083 44.747C55.341 45.0257 54.98 45.412 54.6253 45.906C54.2706 46.3873 53.9413 46.9383 53.6373 47.559C53.346 48.1797 53.1116 48.8447 52.9343 49.554C52.757 50.2507 52.6683 50.9473 52.6683 51.644C52.6683 52.29 52.7886 52.7587 53.0293 53.05C53.27 53.3287 53.5866 53.468 53.9793 53.468C54.4353 53.468 54.9166 53.3287 55.4233 53.05C55.93 52.7713 56.424 52.2773 56.9053 51.568L57.2093 51.72C56.9686 52.138 56.652 52.5433 56.2593 52.936C55.8666 53.3287 55.4233 53.6517 54.9293 53.905C54.448 54.1457 53.935 54.266 53.3903 54.266C52.8836 54.266 52.4403 54.1647 52.0603 53.962C51.6803 53.7593 51.389 53.4617 51.1863 53.069C50.9836 52.6637 50.8823 52.1697 50.8823 51.587C50.8823 51.0423 50.9836 50.4343 51.1863 49.763C51.389 49.079 51.674 48.4013 52.0413 47.73C52.4213 47.046 52.871 46.419 53.3903 45.849C53.9096 45.279 54.486 44.823 55.1193 44.481C55.7526 44.139 56.4303 43.968 57.1523 43.968C57.545 43.968 57.8743 44.0757 58.1403 44.291C58.419 44.4937 58.5583 44.804 58.5583 45.222C58.5583 45.7287 58.4063 46.2037 58.1023 46.647C57.811 47.0777 57.4183 47.4767 56.9243 47.844C56.443 48.1987 55.9173 48.5153 55.3473 48.794C54.7773 49.0727 54.22 49.3133 53.6753 49.516C53.1306 49.7187 52.6493 49.8833 52.2313 50.01L52.2503 49.687ZM65.6588 46.001C65.6588 44.7217 65.4878 43.664 65.1458 42.828C64.8038 41.992 64.3478 41.308 63.7778 40.776C63.2205 40.244 62.6061 39.807 61.9348 39.465L62.1628 39.142C63.1761 39.522 64.0691 40.035 64.8418 40.681C65.6145 41.327 66.2161 42.1313 66.6468 43.094C67.0775 44.0567 67.2928 45.1967 67.2928 46.514C67.2928 47.16 67.2168 47.844 67.0648 48.566C66.9128 49.2753 66.6848 49.9657 66.3808 50.637C66.0768 51.3083 65.7031 51.9227 65.2598 52.48C64.8291 53.0247 64.3225 53.4617 63.7398 53.791C63.1571 54.1077 62.5111 54.266 61.8018 54.266C61.2825 54.266 60.8265 54.1583 60.4338 53.943C60.0411 53.7277 59.7371 53.3983 59.5218 52.955C59.3065 52.5117 59.1988 51.9543 59.1988 51.283C59.1988 50.7257 59.2748 50.1177 59.4268 49.459C59.5788 48.8003 59.8005 48.148 60.0918 47.502C60.3958 46.856 60.7631 46.267 61.1938 45.735C61.6245 45.203 62.1185 44.7787 62.6758 44.462C63.2331 44.1327 63.8475 43.968 64.5188 43.968C64.9241 43.968 65.2281 44.044 65.4308 44.196C65.6335 44.3353 65.7981 44.4747 65.9248 44.614L65.7918 44.842C65.6651 44.6773 65.5005 44.557 65.2978 44.481C65.1078 44.3923 64.8481 44.348 64.5188 44.348C64.1261 44.348 63.7461 44.5127 63.3788 44.842C63.0115 45.1587 62.6695 45.5957 62.3528 46.153C62.0488 46.6977 61.7828 47.312 61.5548 47.996C61.3268 48.68 61.1495 49.3893 61.0228 50.124C60.8961 50.8587 60.8328 51.5617 60.8328 52.233C60.8328 52.803 60.9215 53.221 61.0988 53.487C61.2888 53.753 61.5611 53.886 61.9158 53.886C62.3211 53.886 62.7075 53.7277 63.0748 53.411C63.4548 53.0817 63.8031 52.6447 64.1198 52.1C64.4365 51.5427 64.7088 50.922 64.9368 50.238C65.1648 49.554 65.3421 48.851 65.4688 48.129C65.5955 47.3943 65.6588 46.685 65.6588 46.001ZM73.2456 48.699H80.6556V49.079H73.2456V48.699ZM69.2556 46.514C69.4709 46.0833 69.7243 45.678 70.0156 45.298C70.3196 44.9053 70.6743 44.5887 71.0796 44.348C71.4976 44.0947 71.9853 43.968 72.5426 43.968C73.2646 43.968 73.8219 44.2023 74.2146 44.671C74.6199 45.127 74.8226 45.8237 74.8226 46.761C74.8226 47.3437 74.7466 47.977 74.5946 48.661C74.4426 49.3323 74.2209 50.0037 73.9296 50.675C73.6383 51.3337 73.2836 51.9353 72.8656 52.48C72.4476 53.012 71.9663 53.4427 71.4216 53.772C70.8896 54.1013 70.3006 54.266 69.6546 54.266C69.1479 54.266 68.7109 54.1267 68.3436 53.848C67.9763 53.5567 67.7926 53.1577 67.7926 52.651C67.7926 52.4103 67.8496 52.176 67.9636 51.948C68.0649 51.7073 68.2169 51.511 68.4196 51.359C68.6223 51.207 68.8629 51.131 69.1416 51.131C69.4076 51.131 69.6039 51.207 69.7306 51.359C69.8573 51.4983 69.9206 51.6693 69.9206 51.872C69.9206 52.2393 69.7749 52.556 69.4836 52.822C69.1923 53.0753 68.8629 53.2337 68.4956 53.297C68.5969 53.4743 68.7363 53.62 68.9136 53.734C69.0909 53.8353 69.3189 53.886 69.5976 53.886C70.0156 53.886 70.4273 53.6897 70.8326 53.297C71.2379 52.9043 71.6053 52.366 71.9346 51.682C72.2766 50.998 72.5489 50.219 72.7516 49.345C72.9543 48.471 73.0556 47.5527 73.0556 46.59C73.0556 45.944 72.9606 45.4817 72.7706 45.203C72.5933 44.9117 72.3336 44.766 71.9916 44.766C71.6496 44.766 71.2633 44.9053 70.8326 45.184C70.4146 45.4627 70.0156 45.9567 69.6356 46.666L69.2556 46.514ZM77.3686 44.234C77.6853 44.2213 77.9893 44.196 78.2806 44.158C78.5846 44.12 78.8569 44.0567 79.0976 43.968L76.4756 54C76.4756 54 76.4186 54 76.3046 54C76.1906 54 76.0513 54 75.8866 54C75.7346 54 75.5763 54 75.4116 54C75.2469 54 75.1076 54 74.9936 54C74.8796 54 74.8226 54 74.8226 54L77.3686 44.234ZM84.3416 44.348C83.9236 44.348 83.5119 44.5443 83.1066 44.937C82.7013 45.3297 82.3276 45.868 81.9856 46.552C81.6563 47.236 81.3903 48.015 81.1876 48.889C80.9849 49.763 80.8836 50.6813 80.8836 51.644C80.8836 52.29 80.9723 52.7587 81.1496 53.05C81.3396 53.3287 81.6056 53.468 81.9476 53.468C82.2896 53.468 82.6696 53.3287 83.0876 53.05C83.5183 52.7713 83.9236 52.2773 84.3036 51.568L84.6836 51.72C84.4683 52.138 84.2086 52.5433 83.9046 52.936C83.6133 53.3287 83.2649 53.6517 82.8596 53.905C82.4543 54.1457 81.9666 54.266 81.3966 54.266C80.6746 54.266 80.1109 54.0317 79.7056 53.563C79.3129 53.0943 79.1166 52.3977 79.1166 51.473C79.1166 50.8903 79.1926 50.2633 79.3446 49.592C79.4966 48.908 79.7183 48.2367 80.0096 47.578C80.3009 46.9067 80.6556 46.305 81.0736 45.773C81.4916 45.2283 81.9666 44.7913 82.4986 44.462C83.0433 44.1327 83.6386 43.968 84.2846 43.968C84.7913 43.968 85.2283 44.1137 85.5956 44.405C85.9629 44.6837 86.1466 45.0763 86.1466 45.583C86.1466 45.8237 86.0896 46.0643 85.9756 46.305C85.8743 46.533 85.7223 46.723 85.5196 46.875C85.3169 47.027 85.0763 47.103 84.7976 47.103C84.5316 47.103 84.3353 47.0333 84.2086 46.894C84.0819 46.742 84.0186 46.5647 84.0186 46.362C84.0186 45.9947 84.1643 45.6843 84.4556 45.431C84.7469 45.165 85.0763 45.0003 85.4436 44.937C85.3423 44.7597 85.2029 44.6203 85.0256 44.519C84.8483 44.405 84.6203 44.348 84.3416 44.348ZM89.1677 48.699H94.2977V49.079H89.1677V48.699ZM88.5597 54H86.9067L89.1867 45.849C89.2247 45.7223 89.2627 45.5703 89.3007 45.393C89.3387 45.203 89.3324 45.0383 89.2817 44.899C89.2437 44.747 89.1234 44.671 88.9207 44.671C88.6421 44.671 88.3887 44.8167 88.1607 45.108C87.9327 45.3993 87.6921 45.8997 87.4387 46.609L87.1917 47.312H86.8307L87.3057 45.925C87.4957 45.393 87.7174 44.9877 87.9707 44.709C88.2367 44.4303 88.5091 44.2403 88.7877 44.139C89.0791 44.025 89.3514 43.968 89.6047 43.968C89.9847 43.968 90.2507 44.0567 90.4027 44.234C90.5674 44.3987 90.6561 44.614 90.6687 44.88C90.6941 45.146 90.6751 45.4373 90.6117 45.754C90.5611 46.058 90.4977 46.3493 90.4217 46.628L88.5597 54ZM94.1077 52.385C94.0191 52.727 93.9747 53.012 93.9747 53.24C93.9874 53.4553 94.1204 53.563 94.3737 53.563C94.6524 53.563 94.9057 53.4173 95.1337 53.126C95.3744 52.822 95.6151 52.3217 95.8557 51.625L96.1027 50.922H96.4637L95.9887 52.309C95.8114 52.841 95.5897 53.2463 95.3237 53.525C95.0704 53.8037 94.7981 53.9937 94.5067 54.095C94.2281 54.209 93.9557 54.266 93.6897 54.266C93.4871 54.266 93.2971 54.2217 93.1197 54.133C92.9424 54.0443 92.8094 53.9177 92.7207 53.753C92.6194 53.5377 92.5814 53.2653 92.6067 52.936C92.6447 52.6067 92.7334 52.1633 92.8727 51.606L94.7347 44.234C95.0514 44.2213 95.3554 44.196 95.6467 44.158C95.9507 44.12 96.2231 44.0567 96.4637 43.968L94.1077 52.385ZM107.274 52.385C107.185 52.727 107.141 53.012 107.141 53.24C107.153 53.4553 107.286 53.563 107.54 53.563C107.818 53.563 108.072 53.4173 108.3 53.126C108.54 52.822 108.781 52.3217 109.022 51.625L109.269 50.922H109.63L109.155 52.309C108.977 52.841 108.756 53.2463 108.49 53.525C108.224 53.8037 107.951 53.9937 107.673 54.095C107.407 54.209 107.153 54.266 106.913 54.266C106.697 54.266 106.482 54.228 106.267 54.152C106.051 54.076 105.893 53.943 105.792 53.753C105.703 53.5757 105.665 53.3223 105.678 52.993C105.703 52.651 105.792 52.1887 105.944 51.606L107.901 44.234C108.217 44.2213 108.521 44.196 108.813 44.158C109.117 44.12 109.389 44.0567 109.63 43.968L107.274 52.385ZM102.771 48.528C103.442 48.528 103.961 48.7117 104.329 49.079C104.696 49.4463 104.88 49.934 104.88 50.542C104.88 51.112 104.715 51.6883 104.386 52.271C104.056 52.841 103.588 53.316 102.98 53.696C102.384 54.076 101.662 54.266 100.814 54.266C100.345 54.266 99.9142 54.19 99.5216 54.038C99.1416 53.886 98.8376 53.639 98.6096 53.297C98.3816 52.9423 98.2739 52.4863 98.2866 51.929C98.2992 51.359 98.4639 50.656 98.7806 49.82L100.32 45.849C100.383 45.6843 100.427 45.5133 100.453 45.336C100.491 45.146 100.478 44.9877 100.415 44.861C100.364 44.7343 100.237 44.671 100.035 44.671C99.7559 44.671 99.5026 44.8293 99.2746 45.146C99.0466 45.45 98.8122 45.9377 98.5716 46.609L98.3246 47.312H97.9636L98.4386 45.925C98.6159 45.4183 98.8312 45.0257 99.0846 44.747C99.3379 44.4557 99.6102 44.253 99.9016 44.139C100.193 44.025 100.472 43.968 100.738 43.968C101.434 43.968 101.827 44.196 101.916 44.652C102.017 45.108 101.897 45.7667 101.555 46.628L100.073 50.371C99.7179 51.2703 99.5406 51.9797 99.5406 52.499C99.5532 53.0183 99.6736 53.3857 99.9016 53.601C100.142 53.8163 100.421 53.924 100.738 53.924C101.13 53.924 101.523 53.7973 101.916 53.544C102.321 53.278 102.663 52.9043 102.942 52.423C103.22 51.9417 103.36 51.3653 103.36 50.694C103.36 50.2127 103.265 49.8263 103.075 49.535C102.897 49.231 102.581 49.079 102.125 49.079C101.77 49.079 101.39 49.1867 100.985 49.402C100.579 49.6173 100.263 49.934 100.035 50.352L99.9206 50.143C100.288 49.5603 100.731 49.1487 101.251 48.908C101.783 48.6547 102.289 48.528 102.771 48.528ZM118.11 47.426C117.654 48.6927 117.217 49.763 116.799 50.637C116.381 51.511 115.963 52.214 115.545 52.746C115.14 53.278 114.722 53.6643 114.291 53.905C113.873 54.1457 113.436 54.266 112.98 54.266C112.423 54.266 112.018 54.1393 111.764 53.886C111.511 53.6327 111.384 53.2907 111.384 52.86C111.384 52.4293 111.473 51.9417 111.65 51.397L113.493 45.849C113.62 45.469 113.664 45.1777 113.626 44.975C113.588 44.7723 113.443 44.671 113.189 44.671C112.949 44.671 112.708 44.804 112.467 45.07C112.239 45.336 111.992 45.849 111.726 46.609L111.479 47.312H111.118L111.593 45.925C111.783 45.393 112.005 44.9877 112.258 44.709C112.524 44.4303 112.797 44.2403 113.075 44.139C113.367 44.025 113.639 43.968 113.892 43.968C114.45 43.968 114.817 44.101 114.994 44.367C115.184 44.6203 115.254 44.9497 115.203 45.355C115.165 45.7603 115.07 46.1847 114.918 46.628L113.113 52.062C112.759 53.126 112.898 53.658 113.531 53.658C113.835 53.658 114.158 53.525 114.5 53.259C114.842 52.9803 115.191 52.5877 115.545 52.081C115.9 51.5617 116.248 50.9473 116.59 50.238C116.945 49.516 117.281 48.718 117.597 47.844C117.927 46.9573 118.224 46.0073 118.49 44.994L118.11 47.426ZM118.053 52.385C117.965 52.727 117.92 53.012 117.92 53.24C117.933 53.4553 118.066 53.563 118.319 53.563C118.598 53.563 118.851 53.4173 119.079 53.126C119.32 52.822 119.561 52.3217 119.801 51.625L120.048 50.922H120.409L119.934 52.309C119.757 52.841 119.535 53.2463 119.269 53.525C119.016 53.8037 118.744 53.9937 118.452 54.095C118.174 54.209 117.901 54.266 117.635 54.266C117.433 54.266 117.243 54.2217 117.065 54.133C116.888 54.0443 116.755 53.9177 116.666 53.753C116.565 53.5377 116.527 53.2653 116.552 52.936C116.59 52.6067 116.679 52.1633 116.818 51.606L118.68 44.234C118.997 44.2213 119.301 44.196 119.592 44.158C119.896 44.12 120.169 44.0567 120.409 43.968L118.053 52.385ZM115.868 41.023C115.97 41.1117 116.141 41.194 116.381 41.27C116.635 41.3333 116.92 41.365 117.236 41.365C117.705 41.365 118.193 41.289 118.699 41.137C119.219 40.985 119.706 40.757 120.162 40.453C120.618 40.149 120.998 39.7753 121.302 39.332L121.587 39.541C120.992 40.3517 120.289 40.928 119.478 41.27C118.668 41.612 117.889 41.783 117.141 41.783C116.812 41.783 116.451 41.745 116.058 41.669C115.678 41.5803 115.349 41.4347 115.07 41.232C114.804 41.0167 114.671 40.719 114.671 40.339C114.671 39.9717 114.798 39.674 115.051 39.446C115.305 39.218 115.602 39.104 115.944 39.104C116.198 39.104 116.394 39.1737 116.533 39.313C116.685 39.4397 116.761 39.636 116.761 39.902C116.761 40.1807 116.679 40.415 116.514 40.605C116.35 40.795 116.134 40.9343 115.868 41.023ZM128.471 54H126.818L129.098 45.849C129.149 45.697 129.187 45.5323 129.212 45.355C129.25 45.165 129.244 45.0067 129.193 44.88C129.143 44.7407 129.016 44.671 128.813 44.671C128.535 44.671 128.288 44.8103 128.072 45.089C127.857 45.355 127.616 45.8617 127.35 46.609L127.103 47.312H126.742L127.217 45.925C127.496 45.127 127.838 44.6013 128.243 44.348C128.661 44.0947 129.073 43.968 129.478 43.968C129.858 43.968 130.131 44.0503 130.295 44.215C130.473 44.3797 130.568 44.595 130.58 44.861C130.606 45.1143 130.587 45.3993 130.523 45.716C130.473 46.02 130.409 46.324 130.333 46.628L128.471 54ZM129.345 50.048C129.789 48.908 130.219 47.9517 130.637 47.179C131.055 46.4063 131.467 45.7857 131.872 45.317C132.278 44.8357 132.689 44.4937 133.107 44.291C133.538 44.0757 133.981 43.968 134.437 43.968C135.033 43.968 135.438 44.1137 135.653 44.405C135.881 44.6837 135.983 45.0447 135.957 45.488C135.932 45.9187 135.843 46.3683 135.691 46.837L133.848 52.385C133.734 52.727 133.684 53.012 133.696 53.24C133.722 53.4553 133.874 53.563 134.152 53.563C134.393 53.563 134.627 53.43 134.855 53.164C135.096 52.898 135.349 52.385 135.615 51.625L135.862 50.922H136.223L135.748 52.309C135.571 52.841 135.349 53.2463 135.083 53.525C134.83 53.8037 134.558 53.9937 134.266 54.095C133.988 54.209 133.715 54.266 133.449 54.266C133.145 54.266 132.892 54.2153 132.689 54.114C132.499 54.0127 132.354 53.8797 132.252 53.715C132.113 53.487 132.069 53.1893 132.119 52.822C132.17 52.4547 132.271 52.0493 132.423 51.606L134.228 46.172C134.292 45.9947 134.342 45.7857 134.38 45.545C134.431 45.2917 134.425 45.07 134.361 44.88C134.298 44.6773 134.114 44.576 133.81 44.576C133.506 44.576 133.183 44.709 132.841 44.975C132.499 45.241 132.145 45.621 131.777 46.115C131.41 46.5963 131.049 47.179 130.694 47.863C130.34 48.5343 129.998 49.2817 129.668 50.105C129.352 50.9157 129.06 51.7833 128.794 52.708L129.345 50.048ZM142.951 44.348C142.545 44.348 142.153 44.5127 141.773 44.842C141.405 45.1587 141.063 45.5957 140.747 46.153C140.443 46.6977 140.17 47.312 139.93 47.996C139.702 48.68 139.524 49.3893 139.398 50.124C139.271 50.8587 139.208 51.5617 139.208 52.233C139.208 52.803 139.296 53.221 139.474 53.487C139.664 53.753 139.936 53.886 140.291 53.886C140.696 53.886 141.082 53.7277 141.45 53.411C141.83 53.0817 142.178 52.6447 142.495 52.1C142.811 51.5427 143.084 50.922 143.312 50.238C143.54 49.554 143.717 48.851 143.844 48.129C143.97 47.3943 144.034 46.685 144.034 46.001C144.034 45.4183 143.945 45.0003 143.768 44.747C143.59 44.481 143.318 44.348 142.951 44.348ZM137.574 51.283C137.574 50.7257 137.65 50.1177 137.802 49.459C137.954 48.8003 138.182 48.148 138.486 47.502C138.79 46.856 139.157 46.267 139.588 45.735C140.031 45.203 140.544 44.7787 141.127 44.462C141.709 44.1327 142.355 43.968 143.065 43.968C143.85 43.968 144.477 44.215 144.946 44.709C145.427 45.1903 145.668 45.9377 145.668 46.951C145.668 47.5083 145.592 48.1163 145.44 48.775C145.288 49.4337 145.06 50.086 144.756 50.732C144.452 51.378 144.078 51.967 143.635 52.499C143.204 53.031 142.697 53.4617 142.115 53.791C141.532 54.1077 140.886 54.266 140.177 54.266C139.391 54.266 138.758 54.019 138.277 53.525C137.808 53.031 137.574 52.2837 137.574 51.283ZM152.589 44.348C152.108 44.348 151.626 44.5443 151.145 44.937C150.676 45.3297 150.246 45.868 149.853 46.552C149.46 47.236 149.144 48.015 148.903 48.889C148.675 49.763 148.561 50.6813 148.561 51.644C148.561 52.29 148.681 52.7587 148.922 53.05C149.175 53.3287 149.498 53.468 149.891 53.468C150.347 53.468 150.816 53.3287 151.297 53.05C151.778 52.7713 152.26 52.2773 152.741 51.568L153.121 51.72C152.88 52.138 152.564 52.5433 152.171 52.936C151.778 53.3287 151.335 53.6517 150.841 53.905C150.36 54.1457 149.847 54.266 149.302 54.266C148.542 54.266 147.934 54.0317 147.478 53.563C147.022 53.0943 146.794 52.3977 146.794 51.473C146.794 50.8903 146.876 50.2633 147.041 49.592C147.218 48.908 147.465 48.2367 147.782 47.578C148.111 46.9067 148.51 46.305 148.979 45.773C149.448 45.2283 149.98 44.7913 150.575 44.462C151.17 44.1327 151.823 43.968 152.532 43.968C153.089 43.968 153.571 44.1137 153.976 44.405C154.381 44.6837 154.584 45.0763 154.584 45.583C154.584 45.8237 154.527 46.0643 154.413 46.305C154.312 46.533 154.16 46.723 153.957 46.875C153.754 47.027 153.514 47.103 153.235 47.103C152.969 47.103 152.773 47.0333 152.646 46.894C152.519 46.742 152.456 46.5647 152.456 46.362C152.456 45.9947 152.602 45.6843 152.893 45.431C153.184 45.165 153.514 45.0003 153.881 44.937C153.754 44.7597 153.59 44.6203 153.387 44.519C153.184 44.405 152.918 44.348 152.589 44.348ZM156.249 49.687C156.959 49.4463 157.598 49.212 158.168 48.984C158.751 48.7433 159.213 48.49 159.555 48.224C160.011 47.8567 160.372 47.4133 160.638 46.894C160.904 46.3747 161.037 45.8047 161.037 45.184C161.037 44.8167 161.012 44.5823 160.961 44.481C160.911 44.3797 160.835 44.329 160.733 44.329C160.417 44.329 160.075 44.4683 159.707 44.747C159.34 45.0257 158.979 45.412 158.624 45.906C158.27 46.3873 157.94 46.9383 157.636 47.559C157.345 48.1797 157.111 48.8447 156.933 49.554C156.756 50.2507 156.667 50.9473 156.667 51.644C156.667 52.29 156.788 52.7587 157.028 53.05C157.269 53.3287 157.586 53.468 157.978 53.468C158.434 53.468 158.916 53.3287 159.422 53.05C159.929 52.7713 160.423 52.2773 160.904 51.568L161.208 51.72C160.968 52.138 160.651 52.5433 160.258 52.936C159.866 53.3287 159.422 53.6517 158.928 53.905C158.447 54.1457 157.934 54.266 157.389 54.266C156.883 54.266 156.439 54.1647 156.059 53.962C155.679 53.7593 155.388 53.4617 155.185 53.069C154.983 52.6637 154.881 52.1697 154.881 51.587C154.881 51.0423 154.983 50.4343 155.185 49.763C155.388 49.079 155.673 48.4013 156.04 47.73C156.42 47.046 156.87 46.419 157.389 45.849C157.909 45.279 158.485 44.823 159.118 44.481C159.752 44.139 160.429 43.968 161.151 43.968C161.544 43.968 161.873 44.0757 162.139 44.291C162.418 44.4937 162.557 44.804 162.557 45.222C162.557 45.7287 162.405 46.2037 162.101 46.647C161.81 47.0777 161.417 47.4767 160.923 47.844C160.442 48.1987 159.916 48.5153 159.346 48.794C158.776 49.0727 158.219 49.3133 157.674 49.516C157.13 49.7187 156.648 49.8833 156.23 50.01L156.249 49.687ZM169.696 52.366C169.67 52.48 169.632 52.632 169.582 52.822C169.544 52.9993 169.544 53.164 169.582 53.316C169.632 53.468 169.765 53.544 169.981 53.544C170.234 53.544 170.481 53.4047 170.722 53.126C170.962 52.8473 171.203 52.3407 171.444 51.606L171.672 50.903H172.033L171.558 52.29C171.279 53.05 170.937 53.5693 170.532 53.848C170.126 54.1267 169.74 54.266 169.373 54.266C169.132 54.266 168.923 54.2217 168.746 54.133C168.568 54.0443 168.429 53.924 168.328 53.772C168.163 53.4807 168.119 53.145 168.195 52.765C168.271 52.3723 168.359 51.9797 168.461 51.587L170.323 44.234C170.627 44.2213 170.931 44.196 171.235 44.158C171.539 44.12 171.817 44.0567 172.071 43.968L169.696 52.366ZM162.799 53.981C163.179 53.905 163.514 53.7213 163.806 53.43C164.11 53.126 164.369 52.7587 164.585 52.328C164.813 51.8847 165.009 51.4223 165.174 50.941C165.351 50.447 165.503 49.9657 165.63 49.497C165.756 49.0157 165.864 48.5977 165.953 48.243C166.193 47.3437 166.44 46.5773 166.694 45.944C166.947 45.298 167.238 44.8103 167.568 44.481C167.897 44.139 168.29 43.968 168.746 43.968C169.265 43.968 169.632 44.196 169.848 44.652C170.063 45.108 170.101 45.7097 169.962 46.457L169.753 46.571C169.841 45.8997 169.797 45.3613 169.62 44.956C169.442 44.538 169.138 44.329 168.708 44.329C168.34 44.329 168.024 44.4747 167.758 44.766C167.504 45.0573 167.283 45.431 167.093 45.887C166.903 46.343 166.732 46.837 166.58 47.369C166.44 47.8883 166.307 48.376 166.181 48.832C165.978 49.592 165.763 50.3203 165.535 51.017C165.307 51.701 165.034 52.309 164.718 52.841C164.414 53.3603 164.034 53.7467 163.578 54C163.375 54.114 163.179 54.1837 162.989 54.209C162.799 54.247 162.64 54.266 162.514 54.266C162.197 54.266 161.963 54.1963 161.811 54.057C161.646 53.9303 161.564 53.753 161.564 53.525C161.564 53.2337 161.671 52.9677 161.887 52.727C162.102 52.4863 162.368 52.366 162.685 52.366C162.9 52.366 163.058 52.423 163.16 52.537C163.261 52.6383 163.312 52.7777 163.312 52.955C163.312 53.1323 163.261 53.316 163.16 53.506C163.058 53.6833 162.932 53.8417 162.78 53.981C162.78 53.981 162.786 53.981 162.799 53.981ZM178.743 44.348C178.337 44.348 177.945 44.5127 177.565 44.842C177.197 45.1587 176.855 45.5957 176.539 46.153C176.235 46.6977 175.962 47.312 175.722 47.996C175.494 48.68 175.316 49.3893 175.19 50.124C175.063 50.8587 175 51.5617 175 52.233C175 52.803 175.088 53.221 175.266 53.487C175.456 53.753 175.728 53.886 176.083 53.886C176.488 53.886 176.874 53.7277 177.242 53.411C177.622 53.0817 177.97 52.6447 178.287 52.1C178.603 51.5427 178.876 50.922 179.104 50.238C179.332 49.554 179.509 48.851 179.636 48.129C179.762 47.3943 179.826 46.685 179.826 46.001C179.826 45.4183 179.737 45.0003 179.56 44.747C179.382 44.481 179.11 44.348 178.743 44.348ZM173.366 51.283C173.366 50.7257 173.442 50.1177 173.594 49.459C173.746 48.8003 173.974 48.148 174.278 47.502C174.582 46.856 174.949 46.267 175.38 45.735C175.823 45.203 176.336 44.7787 176.919 44.462C177.501 44.1327 178.147 43.968 178.857 43.968C179.642 43.968 180.269 44.215 180.738 44.709C181.219 45.1903 181.46 45.9377 181.46 46.951C181.46 47.5083 181.384 48.1163 181.232 48.775C181.08 49.4337 180.852 50.086 180.548 50.732C180.244 51.378 179.87 51.967 179.427 52.499C178.996 53.031 178.489 53.4617 177.907 53.791C177.324 54.1077 176.678 54.266 175.969 54.266C175.183 54.266 174.55 54.019 174.069 53.525C173.6 53.031 173.366 52.2837 173.366 51.283ZM189.255 52.784C189.204 53.0627 189.204 53.2653 189.255 53.392C189.306 53.506 189.432 53.563 189.635 53.563C189.888 53.563 190.123 53.4237 190.338 53.145C190.566 52.8537 190.8 52.347 191.041 51.625L191.269 50.922H191.63L191.174 52.309C191.009 52.8157 190.807 53.2147 190.566 53.506C190.338 53.7847 190.078 53.981 189.787 54.095C189.508 54.209 189.217 54.266 188.913 54.266C188.508 54.266 188.178 54.1267 187.925 53.848C187.672 53.5567 187.615 53.0943 187.754 52.461L188.02 51.207C188.172 50.4723 188.09 49.934 187.773 49.592C187.469 49.2373 186.785 49.022 185.721 48.946V48.87C186.202 48.832 186.69 48.832 187.184 48.87C187.691 48.908 188.14 49.0157 188.533 49.193C188.926 49.3577 189.223 49.611 189.426 49.953C189.629 50.2823 189.673 50.7193 189.559 51.264L189.255 52.784ZM190.927 44.367C190.775 44.367 190.642 44.3923 190.528 44.443C190.427 44.4937 190.325 44.557 190.224 44.633C189.983 44.823 189.774 45.0953 189.597 45.45C189.432 45.8047 189.261 46.1847 189.084 46.59C188.919 46.9827 188.71 47.3627 188.457 47.73C188.216 48.0847 187.893 48.376 187.488 48.604C187.095 48.832 186.582 48.9397 185.949 48.927L185.759 48.946L185.797 48.737C186.418 48.699 186.918 48.5597 187.298 48.319C187.678 48.0783 187.982 47.7807 188.21 47.426C188.438 47.0713 188.628 46.704 188.78 46.324C188.945 45.9313 189.109 45.564 189.274 45.222C189.451 44.88 189.673 44.6077 189.939 44.405C190.167 44.2277 190.37 44.1137 190.547 44.063C190.737 43.9997 190.914 43.968 191.079 43.968C191.522 43.968 191.826 44.082 191.991 44.31C192.156 44.5253 192.225 44.785 192.2 45.089C192.187 45.241 192.143 45.412 192.067 45.602C191.991 45.792 191.871 45.9567 191.706 46.096C191.554 46.2353 191.351 46.305 191.098 46.305C190.819 46.305 190.623 46.2227 190.509 46.058C190.395 45.8807 190.344 45.6907 190.357 45.488C190.37 45.3107 190.433 45.1207 190.547 44.918C190.661 44.7027 190.8 44.519 190.965 44.367C190.952 44.367 190.946 44.367 190.946 44.367C190.946 44.367 190.94 44.367 190.927 44.367ZM184.315 54H182.681L185.227 45.849C185.278 45.7223 185.322 45.5703 185.36 45.393C185.398 45.203 185.398 45.0383 185.36 44.899C185.322 44.747 185.202 44.671 184.999 44.671C184.72 44.671 184.461 44.8167 184.22 45.108C183.979 45.3993 183.726 45.8997 183.46 46.609L183.194 47.312H182.833L183.346 45.925C183.549 45.393 183.783 44.9877 184.049 44.709C184.328 44.4303 184.613 44.2403 184.904 44.139C185.195 44.025 185.468 43.968 185.721 43.968C186.101 43.968 186.367 44.0567 186.519 44.234C186.671 44.3987 186.753 44.614 186.766 44.88C186.779 45.146 186.747 45.4373 186.671 45.754C186.595 46.058 186.519 46.3493 186.443 46.628L184.315 54Z" fill="black"/>
</svg>
